<svg width="35" height="35" viewBox="0 0 35 35" fill="none" xmlns="http://www.w3.org/2000/svg">
<path d="M21.6248 14.3331C22.7188 13.2392 23.3334 11.7554 23.3334 10.2083C23.3334 8.66124 22.7188 7.17751 21.6248 6.08354C20.5308 4.98958 19.0471 4.375 17.5 4.375C15.9529 4.375 14.4692 4.98958 13.3752 6.08354C12.2813 7.17751 11.6667 8.66124 11.6667 10.2083C11.6667 11.7554 12.2813 13.2392 13.3752 14.3331C14.4692 15.4271 15.9529 16.0417 17.5 16.0417C19.0471 16.0417 20.5308 15.4271 21.6248 14.3331Z" stroke="#D1D1D1" stroke-width="2" stroke-linecap="round" stroke-linejoin="round"/>
<path d="M10.2816 23.4066C12.1961 21.4922 14.7926 20.4167 17.5 20.4167C20.2074 20.4167 22.804 21.4922 24.7184 23.4066C26.6328 25.3211 27.7084 27.9176 27.7084 30.625H7.29169C7.29169 27.9176 8.3672 25.3211 10.2816 23.4066Z" stroke="#D1D1D1" stroke-width="2" stroke-linecap="round" stroke-linejoin="round"/>
</svg>
